<?xml version="1.0" encoding="UTF-8" standalone="no"?>
<svg width="30px" height="30px" viewBox="0 0 30 30" version="1.1" xmlns="http://www.w3.org/2000/svg" xmlns:xlink="http://www.w3.org/1999/xlink">
    <!-- Generator: Sketch 46.2 (44496) - http://www.bohemiancoding.com/sketch -->
    <title>Artboard Copy 5</title>
    <desc>Created with Sketch.</desc>
    <defs></defs>
    <g id="Page-1" stroke="none" stroke-width="1" fill="none" fill-rule="evenodd">
        <g id="Artboard-Copy-5" fill="#B0B1B4">
            <path d="M5.90548204,9.78947368 C4.85311337,9.78947368 4,8.9411711 4,7.89473684 C4,6.84830258 4.85311337,6 5.90548204,6 C6.95785071,6 7.81096408,6.84830258 7.81096408,7.89473684 C7.81096408,8.9411711 6.95785071,9.78947368 5.90548204,9.78947368 Z M5.90548204,16.8947368 C4.85311337,16.8947368 4,16.0464343 4,15 C4,13.9535657 4.85311337,13.1052632 5.90548204,13.1052632 C6.95785071,13.1052632 7.81096408,13.9535657 7.81096408,15 C7.81096408,16.0464343 6.95785071,16.8947368 5.90548204,16.8947368 Z M5.90548204,24 C4.85311337,24 4,23.1516974 4,22.1052632 C4,21.0588289 4.85311337,20.2105263 5.90548204,20.2105263 C6.95785071,20.2105263 7.81096408,21.0588289 7.81096408,22.1052632 C7.81096408,23.1516974 6.95785071,24 5.90548204,24 Z M9.71644612,7.89473684 C9.71644612,6.84830258 10.5644413,6 11.6061002,6 L24.0233894,6 C25.0670165,6 25.9130435,6.84100703 25.9130435,7.89473684 C25.9130435,8.9411711 25.0650483,9.78947368 24.0233894,9.78947368 L11.6061002,9.78947368 C10.5624731,9.78947368 9.71644612,8.94846665 9.71644612,7.89473684 Z M9.71644612,15 C9.71644612,13.9535657 10.5644413,13.1052632 11.6061002,13.1052632 L24.0233894,13.1052632 C25.0670165,13.1052632 25.9130435,13.9462702 25.9130435,15 C25.9130435,16.0464343 25.0650483,16.8947368 24.0233894,16.8947368 L11.6061002,16.8947368 C10.5624731,16.8947368 9.71644612,16.0537298 9.71644612,15 Z M9.71644612,22.1052632 C9.71644612,21.0588289 10.5644413,20.2105263 11.6061002,20.2105263 L24.0233894,20.2105263 C25.0670165,20.2105263 25.9130435,21.0515333 25.9130435,22.1052632 C25.9130435,23.1516974 25.0650483,24 24.0233894,24 L11.6061002,24 C10.5624731,24 9.71644612,23.158993 9.71644612,22.1052632 Z" id="Combined-Shape"></path>
        </g>
    </g>
</svg>