<?xml version="1.0" encoding="UTF-8" standalone="no"?>
<svg width="30px" height="30px" viewBox="0 0 30 30" version="1.1" xmlns="http://www.w3.org/2000/svg" xmlns:xlink="http://www.w3.org/1999/xlink">
    <!-- Generator: Sketch 46.2 (44496) - http://www.bohemiancoding.com/sketch -->
    <title>Artboard Copy 6</title>
    <desc>Created with Sketch.</desc>
    <defs></defs>
    <g id="Page-1" stroke="none" stroke-width="1" fill="none" fill-rule="evenodd">
        <g id="Artboard-Copy-6" fill="#B0B1B4">
            <path d="M19.2407341,11.0333333 L21.1325001,11.0333333 L21.1325001,25.5 L8.8475001,25.5 L8.8475001,11.0333333 L10.266755,11.0333333 C10.2655883,10.9994906 10.2650001,10.9654996 10.2650001,10.9313699 L10.2650001,7.40196339 C10.2650001,5.79925327 11.5704057,4.5 13.1673392,4.5 L16.3401609,4.5 C17.9430786,4.5 19.2425001,5.79776001 19.2425001,7.40196339 L19.2425001,10.9313699 C19.2425001,10.9654985 19.2419082,10.9994895 19.2407341,11.0333333 L19.2407341,11.0333333 Z M23.0225001,11.0333333 L23.4345257,11.0333333 C25.0336521,11.0333333 26.3300001,12.3298849 26.3300001,13.9434769 L26.3300001,22.5898564 C26.3300001,24.1970843 25.0291652,25.5 23.4345257,25.5 L23.0225001,25.5 L23.0225001,11.0333333 L23.0225001,11.0333333 Z M6.9575001,11.0333333 L6.54547449,11.0333333 C4.95083498,11.0333333 3.6500001,12.336249 3.6500001,13.9434769 L3.6500001,22.5898564 C3.6500001,24.2034484 4.94634814,25.5 6.54547449,25.5 L6.9575001,25.5 L6.9575001,11.0333333 Z M12.2810001,7.40196339 L12.2810001,10.9313699 C12.2810001,11.4214326 12.6770929,11.8173333 13.1673392,11.8173333 L16.3401609,11.8173333 C16.8264553,11.8173333 17.2265001,11.4179092 17.2265001,10.9313699 L17.2265001,7.40196339 C17.2265001,6.91190072 16.8304073,6.516 16.3401609,6.516 L13.1673392,6.516 C12.6810449,6.516 12.2810001,6.91542415 12.2810001,7.40196339 Z" id="Combined-Shape"></path>
        </g>
    </g>
</svg>