<?xml version="1.0" encoding="UTF-8" standalone="no"?>
<svg width="30px" height="30px" viewBox="0 0 30 30" version="1.1" xmlns="http://www.w3.org/2000/svg" xmlns:xlink="http://www.w3.org/1999/xlink">
    <!-- Generator: Sketch 46.2 (44496) - http://www.bohemiancoding.com/sketch -->
    <title>Artboard Copy 7</title>
    <desc>Created with Sketch.</desc>
    <defs></defs>
    <g id="Page-1" stroke="none" stroke-width="1" fill="none" fill-rule="evenodd">
        <g id="Artboard-Copy-7" fill="#B0B1B4">
            <path d="M12.5064296,13.4696014 C8.7488535,14.4056798 6,17.4040912 6,20.9583333 C6,22.1124569 6.28984258,23.207973 6.80994811,24.193301 C9.09683206,25.3283505 11.9308745,26 15,26 C18.0691255,26 20.9031679,25.3283505 23.1900519,24.193301 C23.7101574,23.207973 24,22.1124569 24,20.9583333 C24,17.4040912 21.2511465,14.4056798 17.4935704,13.4696014 C19.1123884,12.614291 20.2105263,10.9520648 20.2105263,9.04166667 C20.2105263,6.25723105 17.8776942,4 15,4 C12.1223058,4 9.78947368,6.25723105 9.78947368,9.04166667 C9.78947368,10.9520648 10.8876116,12.614291 12.5064296,13.4696014 L12.5064296,13.4696014 Z" id="Combined-Shape"></path>
        </g>
    </g>
</svg>