<?xml version="1.0" encoding="UTF-8" standalone="no"?>
<svg width="30px" height="30px" viewBox="0 0 30 30" version="1.1" xmlns="http://www.w3.org/2000/svg" xmlns:xlink="http://www.w3.org/1999/xlink">
    <!-- Generator: Sketch 46.2 (44496) - http://www.bohemiancoding.com/sketch -->
    <title>Artboard Copy 4</title>
    <desc>Created with Sketch.</desc>
    <defs>
        <path d="M22,1.90909091 C22,0.859090909 21.175,0 20.1666667,0 L1.83333333,0 C0.825,0 0,0.859090909 0,1.90909091 L0,19.0909091 C0,20.1409091 0.825,21 1.83333333,21 L20.1666667,21 C21.175,21 22,20.1409091 22,19.0909091 L22,1.90909091 Z M7.79166667,14.7954545 C7.79166667,15.0818182 7.60833333,15.2727273 7.33333333,15.2727273 L3.20833333,15.2727273 C2.93333333,15.2727273 2.75,15.0818182 2.75,14.7954545 L2.75,12.8863636 C2.75,12.6 2.93333333,12.4090909 3.20833333,12.4090909 L7.33333333,12.4090909 C7.60833333,12.4090909 7.79166667,12.6 7.79166667,12.8863636 L7.79166667,14.7954545 Z M7.79166667,10.0227273 C7.79166667,10.3090909 7.60833333,10.5 7.33333333,10.5 L3.20833333,10.5 C2.93333333,10.5 2.75,10.3090909 2.75,10.0227273 L2.75,8.11363636 C2.75,7.82727273 2.93333333,7.63636364 3.20833333,7.63636364 L7.33333333,7.63636364 C7.60833333,7.63636364 7.79166667,7.82727273 7.79166667,8.11363636 L7.79166667,10.0227273 Z M7.79166667,5.25 C7.79166667,5.53636364 7.60833333,5.72727273 7.33333333,5.72727273 L3.20833333,5.72727273 C2.93333333,5.72727273 2.75,5.53636364 2.75,5.25 L2.75,3.34090909 C2.75,3.05454545 2.93333333,2.86363636 3.20833333,2.86363636 L7.33333333,2.86363636 C7.60833333,2.86363636 7.79166667,3.05454545 7.79166667,3.34090909 L7.79166667,5.25 Z M19.25,17.6590909 C19.25,17.9454545 19.0666667,18.1363636 18.7916667,18.1363636 L10.0833333,18.1363636 C9.80833333,18.1363636 9.625,17.9454545 9.625,17.6590909 L9.625,3.34090909 C9.625,3.05454545 9.80833333,2.86363636 10.0833333,2.86363636 L18.7916667,2.86363636 C19.0666667,2.86363636 19.25,3.05454545 19.25,3.34090909 L19.25,17.6590909 Z" id="path-1"></path>
    </defs>
    <g id="Page-1" stroke="none" stroke-width="1" fill="none" fill-rule="evenodd">
        <g id="Artboard-Copy-4">
            <g id="icons/utility/inbox-copy" transform="translate(4.000000, 4.500000)">
                <mask id="mask-2" fill="white">
                    <use xlink:href="#path-1"></use>
                </mask>
                <use id="Mask" fill="#B0B1B4" xlink:href="#path-1"></use>
            </g>
        </g>
    </g>
</svg>